# xmcd
#
# Track frame offsets:
#	150
#	15250
#	29210
#	48932
#	65955
#	83172
#	99247
#	113192
#	129265
#	144327
#	158292
#	178040
#	195112
#	212312
#	228395
#	242377
#
# Disc length: 3445 seconds
#
# Revision: 1
# Processed by: cddbd v1.5.2PL0 Copyright (c) Steve Scherf et al.
# Submitted via: audiograbber 1.83.01
#
DISCID=bd0d7310
DTITLE=Sound Choice - SC2156
DYEAR=1900
DGENRE=
TTITLE0=Murray, Anne - Just Another Woman In Love
TTITLE1=Murray, Anne - I Just Fall In Love Again
TTITLE2=Murray, Anne - Brokenhearted Me
TTITLE3=Murray, Anne - Bluebird
TTITLE4=Murray, Anne - You Needed Me
TTITLE5=Murray, Anne - A Little Good News
TTITLE6=Murray, Anne - He Thinks I Still Care
TTITLE7=Murray, Anne - Could I Have This Dance
TTITLE8=Murray, Anne - Just Another Woman In Love (Vocal)
TTITLE9=Murray, Anne - I Just Fall In Love Again (Vocal)
TTITLE10=Murray, Anne - Brokenhearted Me (Vocal)
TTITLE11=Murray, Anne - Bluebird (Vocal)
TTITLE12=Murray, Anne - You Needed Me (Vocal)
TTITLE13=Murray, Anne - A Little Good News (Vocal)
TTITLE14=Murray, Anne - He Thinks I Still Care (Vocal)
TTITLE15=Murray, Anne - Could I Have This Dance (Vocal)
EXTD=
EXTT0=
EXTT1=
EXTT2=
EXTT3=
EXTT4=
EXTT5=
EXTT6=
EXTT7=
EXTT8=
EXTT9=
EXTT10=
EXTT11=
EXTT12=
EXTT13=
EXTT14=
EXTT15=
PLAYORDER=
